# xmcd CD database file
#
# Track frame offsets:
#	150
#	12290
#	28479
#	46834
#	67222
#	87601
#	103866
#	121737
#	137194
#	158316
#	193405
#	204133
#	227066
#	249504
#	269091
#	281148
#	297787
#	308854
#
# Disc length: 4296 seconds
#
# Revision: 1
# Processed by: cddbd v1.5.2PL0 Copyright (c) Steve Scherf et al.
# Submitted via: CDex 1.51
#
DISCID=1110c612
DTITLE=Sportiello Rossano - Piano On My Mind
DYEAR=2005
DGENRE=Jazz
TTITLE0=1 - Down Stream, Eastwood Lane
TTITLE1=2 - You Took Advantage Of Me, Lorenz Hart
TTITLE2=3 - Blowin' Up, Rossano Sportiello
TTITLE3=4 - I Cover The Waterfront, Ed Heyman
TTITLE4=5 - Cheek To Cheek, Irvin Berlin
TTITLE5=6 - Sweet Lorraine, Clifford Burwell
TTITLE6=7 - The Best Thing For You, Irving Berlin
TTITLE7=8 - That's All, Alan Brandt
TTITLE8=9 - Tenderly, Jack Lawrence
TTITLE9=10- Detroit Medley
TTITLE10=11- Echoes of Spring, Willi Smith
TTITLE11=12- Oh, Lady, Be Good!, Gershwin
TTITLE12=13- Bluesale, Rosane Sportiello
TTITLE13=14- Tangerine, Johnny Mercer
TTITLE14=15- Sonny Morning, Teddy Wilson
TTITLE15=16- Body And Soul, Ed Heyman
TTITLE16=17- All God's Chillun Got Rhythm. Gus Kahn
TTITLE17=18- Flashes, Bix Beiderbecke
EXTD=YEAR: 2005
EXTT0=
EXTT1=
EXTT2=
EXTT3=
EXTT4=
EXTT5=
EXTT6=
EXTT7=
EXTT8=
EXTT9=
EXTT10=
EXTT11=
EXTT12=
EXTT13=
EXTT14=
EXTT15=
EXTT16=
EXTT17=
PLAYORDER=
